<svg width="208" height="58" viewBox="0 0 208 58" fill="none" xmlns="http://www.w3.org/2000/svg">
<rect width="208" height="58" rx="6" fill="black"/>
<path d="M62.8633 20.0002V11.4082H65.4913C66.8033 11.4082 67.8553 11.8042 68.6473 12.5962C69.4473 13.3882 69.8473 14.4242 69.8473 15.7042C69.8473 16.9922 69.4473 18.0322 68.6473 18.8242C67.8553 19.6082 66.8033 20.0002 65.4913 20.0002H62.8633ZM63.9673 12.4642V18.9442H65.4913C66.4913 18.9442 67.2793 18.6602 67.8553 18.0922C68.4313 17.5162 68.7193 16.7202 68.7193 15.7042C68.7193 14.6962 68.4313 13.9042 67.8553 13.3282C67.2793 12.7522 66.4913 12.4642 65.4913 12.4642H63.9673Z" fill="white"/>
<path d="M62.8633 20.0002V11.4082H65.4913C66.8033 11.4082 67.8553 11.8042 68.6473 12.5962C69.4473 13.3882 69.8473 14.4242 69.8473 15.7042C69.8473 16.9922 69.4473 18.0322 68.6473 18.8242C67.8553 19.6082 66.8033 20.0002 65.4913 20.0002H62.8633ZM63.9673 12.4642V18.9442H65.4913C66.4913 18.9442 67.2793 18.6602 67.8553 18.0922C68.4313 17.5162 68.7193 16.7202 68.7193 15.7042C68.7193 14.6962 68.4313 13.9042 67.8553 13.3282C67.2793 12.7522 66.4913 12.4642 65.4913 12.4642H63.9673Z" fill="white" fill-opacity="0.2"/>
<path d="M70.4564 17.0602C70.4564 16.1562 70.7404 15.4082 71.3084 14.8162C71.8844 14.2242 72.6084 13.9282 73.4804 13.9282C74.3524 13.9282 75.0724 14.2242 75.6404 14.8162C76.2164 15.4082 76.5044 16.1562 76.5044 17.0602C76.5044 17.9722 76.2164 18.7202 75.6404 19.3042C75.0724 19.8962 74.3524 20.1922 73.4804 20.1922C72.6084 20.1922 71.8844 19.8962 71.3084 19.3042C70.7404 18.7122 70.4564 17.9642 70.4564 17.0602ZM71.5604 17.0602C71.5604 17.6922 71.7444 18.2042 72.1124 18.5962C72.4804 18.9882 72.9364 19.1842 73.4804 19.1842C74.0244 19.1842 74.4804 18.9882 74.8484 18.5962C75.2164 18.2042 75.4004 17.6922 75.4004 17.0602C75.4004 16.4362 75.2164 15.9282 74.8484 15.5362C74.4724 15.1362 74.0164 14.9362 73.4804 14.9362C72.9444 14.9362 72.4884 15.1362 72.1124 15.5362C71.7444 15.9282 71.5604 16.4362 71.5604 17.0602Z" fill="white"/>
<path d="M70.4564 17.0602C70.4564 16.1562 70.7404 15.4082 71.3084 14.8162C71.8844 14.2242 72.6084 13.9282 73.4804 13.9282C74.3524 13.9282 75.0724 14.2242 75.6404 14.8162C76.2164 15.4082 76.5044 16.1562 76.5044 17.0602C76.5044 17.9722 76.2164 18.7202 75.6404 19.3042C75.0724 19.8962 74.3524 20.1922 73.4804 20.1922C72.6084 20.1922 71.8844 19.8962 71.3084 19.3042C70.7404 18.7122 70.4564 17.9642 70.4564 17.0602ZM71.5604 17.0602C71.5604 17.6922 71.7444 18.2042 72.1124 18.5962C72.4804 18.9882 72.9364 19.1842 73.4804 19.1842C74.0244 19.1842 74.4804 18.9882 74.8484 18.5962C75.2164 18.2042 75.4004 17.6922 75.4004 17.0602C75.4004 16.4362 75.2164 15.9282 74.8484 15.5362C74.4724 15.1362 74.0164 14.9362 73.4804 14.9362C72.9444 14.9362 72.4884 15.1362 72.1124 15.5362C71.7444 15.9282 71.5604 16.4362 71.5604 17.0602Z" fill="white" fill-opacity="0.2"/>
<path d="M85.718 14.1202L83.822 20.0002H82.694L81.23 15.4882L79.778 20.0002H78.662L76.766 14.1202H77.918L79.226 18.5602H79.238L80.69 14.1202H81.83L83.282 18.5602H83.294L84.59 14.1202H85.718Z" fill="white"/>
<path d="M85.718 14.1202L83.822 20.0002H82.694L81.23 15.4882L79.778 20.0002H78.662L76.766 14.1202H77.918L79.226 18.5602H79.238L80.69 14.1202H81.83L83.282 18.5602H83.294L84.59 14.1202H85.718Z" fill="white" fill-opacity="0.2"/>
<path d="M86.4369 14.1202H87.4929V14.9362H87.5409C87.7089 14.6482 87.9649 14.4082 88.3089 14.2162C88.6609 14.0242 89.0249 13.9282 89.4009 13.9282C90.1209 13.9282 90.6729 14.1362 91.0569 14.5522C91.4489 14.9602 91.6449 15.5442 91.6449 16.3042V20.0002H90.5409V16.3762C90.5169 15.4162 90.0329 14.9362 89.0889 14.9362C88.6489 14.9362 88.2809 15.1162 87.9849 15.4762C87.6889 15.8282 87.5409 16.2522 87.5409 16.7482V20.0002H86.4369V14.1202Z" fill="white"/>
<path d="M86.4369 14.1202H87.4929V14.9362H87.5409C87.7089 14.6482 87.9649 14.4082 88.3089 14.2162C88.6609 14.0242 89.0249 13.9282 89.4009 13.9282C90.1209 13.9282 90.6729 14.1362 91.0569 14.5522C91.4489 14.9602 91.6449 15.5442 91.6449 16.3042V20.0002H90.5409V16.3762C90.5169 15.4162 90.0329 14.9362 89.0889 14.9362C88.6489 14.9362 88.2809 15.1162 87.9849 15.4762C87.6889 15.8282 87.5409 16.2522 87.5409 16.7482V20.0002H86.4369V14.1202Z" fill="white" fill-opacity="0.2"/>
<path d="M94.0448 11.4082V20.0002H92.9408V11.4082H94.0448Z" fill="white"/>
<path d="M94.0448 11.4082V20.0002H92.9408V11.4082H94.0448Z" fill="white" fill-opacity="0.2"/>
<path d="M94.9954 17.0602C94.9954 16.1562 95.2794 15.4082 95.8474 14.8162C96.4234 14.2242 97.1474 13.9282 98.0194 13.9282C98.8914 13.9282 99.6114 14.2242 100.179 14.8162C100.755 15.4082 101.043 16.1562 101.043 17.0602C101.043 17.9722 100.755 18.7202 100.179 19.3042C99.6114 19.8962 98.8914 20.1922 98.0194 20.1922C97.1474 20.1922 96.4234 19.8962 95.8474 19.3042C95.2794 18.7122 94.9954 17.9642 94.9954 17.0602ZM96.0994 17.0602C96.0994 17.6922 96.2834 18.2042 96.6514 18.5962C97.0194 18.9882 97.4754 19.1842 98.0194 19.1842C98.5634 19.1842 99.0194 18.9882 99.3874 18.5962C99.7554 18.2042 99.9394 17.6922 99.9394 17.0602C99.9394 16.4362 99.7554 15.9282 99.3874 15.5362C99.0114 15.1362 98.5554 14.9362 98.0194 14.9362C97.4834 14.9362 97.0274 15.1362 96.6514 15.5362C96.2834 15.9282 96.0994 16.4362 96.0994 17.0602Z" fill="white"/>
<path d="M94.9954 17.0602C94.9954 16.1562 95.2794 15.4082 95.8474 14.8162C96.4234 14.2242 97.1474 13.9282 98.0194 13.9282C98.8914 13.9282 99.6114 14.2242 100.179 14.8162C100.755 15.4082 101.043 16.1562 101.043 17.0602C101.043 17.9722 100.755 18.7202 100.179 19.3042C99.6114 19.8962 98.8914 20.1922 98.0194 20.1922C97.1474 20.1922 96.4234 19.8962 95.8474 19.3042C95.2794 18.7122 94.9954 17.9642 94.9954 17.0602ZM96.0994 17.0602C96.0994 17.6922 96.2834 18.2042 96.6514 18.5962C97.0194 18.9882 97.4754 19.1842 98.0194 19.1842C98.5634 19.1842 99.0194 18.9882 99.3874 18.5962C99.7554 18.2042 99.9394 17.6922 99.9394 17.0602C99.9394 16.4362 99.7554 15.9282 99.3874 15.5362C99.0114 15.1362 98.5554 14.9362 98.0194 14.9362C97.4834 14.9362 97.0274 15.1362 96.6514 15.5362C96.2834 15.9282 96.0994 16.4362 96.0994 17.0602Z" fill="white" fill-opacity="0.2"/>
<path d="M102.85 18.2002C102.85 18.4882 102.97 18.7282 103.21 18.9202C103.458 19.1122 103.746 19.2082 104.074 19.2082C104.538 19.2082 104.95 19.0362 105.31 18.6922C105.678 18.3482 105.862 17.9442 105.862 17.4802C105.518 17.2082 105.038 17.0722 104.422 17.0722C103.974 17.0722 103.598 17.1802 103.294 17.3962C102.998 17.6122 102.85 17.8802 102.85 18.2002ZM104.278 13.9282C105.094 13.9282 105.738 14.1482 106.21 14.5882C106.682 15.0202 106.918 15.6162 106.918 16.3762V20.0002H105.862V19.1842H105.814C105.358 19.8562 104.75 20.1922 103.99 20.1922C103.342 20.1922 102.798 20.0002 102.358 19.6162C101.926 19.2322 101.71 18.7522 101.71 18.1762C101.71 17.5682 101.938 17.0842 102.394 16.7242C102.858 16.3642 103.474 16.1842 104.242 16.1842C104.898 16.1842 105.438 16.3042 105.862 16.5442V16.2922C105.862 15.9082 105.71 15.5842 105.406 15.3202C105.102 15.0482 104.746 14.9122 104.338 14.9122C103.722 14.9122 103.234 15.1722 102.874 15.6922L101.902 15.0802C102.438 14.3122 103.23 13.9282 104.278 13.9282Z" fill="white"/>
<path d="M102.85 18.2002C102.85 18.4882 102.97 18.7282 103.21 18.9202C103.458 19.1122 103.746 19.2082 104.074 19.2082C104.538 19.2082 104.95 19.0362 105.31 18.6922C105.678 18.3482 105.862 17.9442 105.862 17.4802C105.518 17.2082 105.038 17.0722 104.422 17.0722C103.974 17.0722 103.598 17.1802 103.294 17.3962C102.998 17.6122 102.85 17.8802 102.85 18.2002ZM104.278 13.9282C105.094 13.9282 105.738 14.1482 106.21 14.5882C106.682 15.0202 106.918 15.6162 106.918 16.3762V20.0002H105.862V19.1842H105.814C105.358 19.8562 104.75 20.1922 103.99 20.1922C103.342 20.1922 102.798 20.0002 102.358 19.6162C101.926 19.2322 101.71 18.7522 101.71 18.1762C101.71 17.5682 101.938 17.0842 102.394 16.7242C102.858 16.3642 103.474 16.1842 104.242 16.1842C104.898 16.1842 105.438 16.3042 105.862 16.5442V16.2922C105.862 15.9082 105.71 15.5842 105.406 15.3202C105.102 15.0482 104.746 14.9122 104.338 14.9122C103.722 14.9122 103.234 15.1722 102.874 15.6922L101.902 15.0802C102.438 14.3122 103.23 13.9282 104.278 13.9282Z" fill="white" fill-opacity="0.2"/>
<path d="M110.745 19.1842C111.289 19.1842 111.733 18.9882 112.077 18.5962C112.437 18.2042 112.617 17.6922 112.617 17.0602C112.617 16.4442 112.437 15.9362 112.077 15.5362C111.725 15.1362 111.281 14.9362 110.745 14.9362C110.217 14.9362 109.773 15.1362 109.413 15.5362C109.053 15.9362 108.873 16.4442 108.873 17.0602C108.873 17.6842 109.053 18.1922 109.413 18.5842C109.773 18.9842 110.217 19.1842 110.745 19.1842ZM110.565 20.1922C109.797 20.1922 109.137 19.8882 108.585 19.2802C108.041 18.6642 107.769 17.9242 107.769 17.0602C107.769 16.1962 108.041 15.4562 108.585 14.8402C109.137 14.2322 109.797 13.9282 110.565 13.9282C110.997 13.9282 111.389 14.0202 111.741 14.2042C112.101 14.3882 112.377 14.6322 112.569 14.9362H112.617L112.569 14.1202V11.4082H113.673V20.0002H112.617V19.1842H112.569C112.377 19.4882 112.101 19.7322 111.741 19.9162C111.389 20.1002 110.997 20.1922 110.565 20.1922Z" fill="white"/>
<path d="M110.745 19.1842C111.289 19.1842 111.733 18.9882 112.077 18.5962C112.437 18.2042 112.617 17.6922 112.617 17.0602C112.617 16.4442 112.437 15.9362 112.077 15.5362C111.725 15.1362 111.281 14.9362 110.745 14.9362C110.217 14.9362 109.773 15.1362 109.413 15.5362C109.053 15.9362 108.873 16.4442 108.873 17.0602C108.873 17.6842 109.053 18.1922 109.413 18.5842C109.773 18.9842 110.217 19.1842 110.745 19.1842ZM110.565 20.1922C109.797 20.1922 109.137 19.8882 108.585 19.2802C108.041 18.6642 107.769 17.9242 107.769 17.0602C107.769 16.1962 108.041 15.4562 108.585 14.8402C109.137 14.2322 109.797 13.9282 110.565 13.9282C110.997 13.9282 111.389 14.0202 111.741 14.2042C112.101 14.3882 112.377 14.6322 112.569 14.9362H112.617L112.569 14.1202V11.4082H113.673V20.0002H112.617V19.1842H112.569C112.377 19.4882 112.101 19.7322 111.741 19.9162C111.389 20.1002 110.997 20.1922 110.565 20.1922Z" fill="white" fill-opacity="0.2"/>
<path d="M117.32 17.0602C117.32 16.1562 117.604 15.4082 118.172 14.8162C118.748 14.2242 119.472 13.9282 120.344 13.9282C121.216 13.9282 121.936 14.2242 122.504 14.8162C123.08 15.4082 123.368 16.1562 123.368 17.0602C123.368 17.9722 123.08 18.7202 122.504 19.3042C121.936 19.8962 121.216 20.1922 120.344 20.1922C119.472 20.1922 118.748 19.8962 118.172 19.3042C117.604 18.7122 117.32 17.9642 117.32 17.0602ZM118.424 17.0602C118.424 17.6922 118.608 18.2042 118.976 18.5962C119.344 18.9882 119.8 19.1842 120.344 19.1842C120.888 19.1842 121.344 18.9882 121.712 18.5962C122.08 18.2042 122.264 17.6922 122.264 17.0602C122.264 16.4362 122.08 15.9282 121.712 15.5362C121.336 15.1362 120.88 14.9362 120.344 14.9362C119.808 14.9362 119.352 15.1362 118.976 15.5362C118.608 15.9282 118.424 16.4362 118.424 17.0602Z" fill="white"/>
<path d="M117.32 17.0602C117.32 16.1562 117.604 15.4082 118.172 14.8162C118.748 14.2242 119.472 13.9282 120.344 13.9282C121.216 13.9282 121.936 14.2242 122.504 14.8162C123.08 15.4082 123.368 16.1562 123.368 17.0602C123.368 17.9722 123.08 18.7202 122.504 19.3042C121.936 19.8962 121.216 20.1922 120.344 20.1922C119.472 20.1922 118.748 19.8962 118.172 19.3042C117.604 18.7122 117.32 17.9642 117.32 17.0602ZM118.424 17.0602C118.424 17.6922 118.608 18.2042 118.976 18.5962C119.344 18.9882 119.8 19.1842 120.344 19.1842C120.888 19.1842 121.344 18.9882 121.712 18.5962C122.08 18.2042 122.264 17.6922 122.264 17.0602C122.264 16.4362 122.08 15.9282 121.712 15.5362C121.336 15.1362 120.88 14.9362 120.344 14.9362C119.808 14.9362 119.352 15.1362 118.976 15.5362C118.608 15.9282 118.424 16.4362 118.424 17.0602Z" fill="white" fill-opacity="0.2"/>
<path d="M124.253 14.1202H125.309V14.9362H125.357C125.525 14.6482 125.781 14.4082 126.125 14.2162C126.477 14.0242 126.841 13.9282 127.217 13.9282C127.937 13.9282 128.489 14.1362 128.873 14.5522C129.265 14.9602 129.461 15.5442 129.461 16.3042V20.0002H128.357V16.3762C128.333 15.4162 127.849 14.9362 126.905 14.9362C126.465 14.9362 126.097 15.1162 125.801 15.4762C125.505 15.8282 125.357 16.2522 125.357 16.7482V20.0002H124.253V14.1202Z" fill="white"/>
<path d="M124.253 14.1202H125.309V14.9362H125.357C125.525 14.6482 125.781 14.4082 126.125 14.2162C126.477 14.0242 126.841 13.9282 127.217 13.9282C127.937 13.9282 128.489 14.1362 128.873 14.5522C129.265 14.9602 129.461 15.5442 129.461 16.3042V20.0002H128.357V16.3762C128.333 15.4162 127.849 14.9362 126.905 14.9362C126.465 14.9362 126.097 15.1162 125.801 15.4762C125.505 15.8282 125.357 16.2522 125.357 16.7482V20.0002H124.253V14.1202Z" fill="white" fill-opacity="0.2"/>
<path d="M135.722 20.0962C135.242 20.0962 134.842 19.9482 134.522 19.6522C134.21 19.3562 134.05 18.9442 134.042 18.4162V15.1282H133.01V14.1202H134.042V12.3202H135.146V14.1202H136.586V15.1282H135.146V18.0562C135.146 18.4482 135.222 18.7162 135.374 18.8602C135.526 18.9962 135.698 19.0642 135.89 19.0642C135.978 19.0642 136.062 19.0562 136.142 19.0402C136.23 19.0162 136.31 18.9882 136.382 18.9562L136.73 19.9402C136.442 20.0442 136.106 20.0962 135.722 20.0962Z" fill="white"/>
<path d="M135.722 20.0962C135.242 20.0962 134.842 19.9482 134.522 19.6522C134.21 19.3562 134.05 18.9442 134.042 18.4162V15.1282H133.01V14.1202H134.042V12.3202H135.146V14.1202H136.586V15.1282H135.146V18.0562C135.146 18.4482 135.222 18.7162 135.374 18.8602C135.526 18.9962 135.698 19.0642 135.89 19.0642C135.978 19.0642 136.062 19.0562 136.142 19.0402C136.23 19.0162 136.31 18.9882 136.382 18.9562L136.73 19.9402C136.442 20.0442 136.106 20.0962 135.722 20.0962Z" fill="white" fill-opacity="0.2"/>
<path d="M137.695 11.4082H138.799V14.1202L138.751 14.9362H138.799C138.967 14.6482 139.223 14.4082 139.567 14.2162C139.919 14.0242 140.283 13.9282 140.659 13.9282C141.379 13.9282 141.931 14.1362 142.315 14.5522C142.707 14.9602 142.903 15.5442 142.903 16.3042V20.0002H141.799V16.5202C141.799 15.4642 141.331 14.9362 140.395 14.9362C139.947 14.9362 139.567 15.1242 139.255 15.5002C138.951 15.8682 138.799 16.3002 138.799 16.7962V20.0002H137.695V11.4082Z" fill="white"/>
<path d="M137.695 11.4082H138.799V14.1202L138.751 14.9362H138.799C138.967 14.6482 139.223 14.4082 139.567 14.2162C139.919 14.0242 140.283 13.9282 140.659 13.9282C141.379 13.9282 141.931 14.1362 142.315 14.5522C142.707 14.9602 142.903 15.5442 142.903 16.3042V20.0002H141.799V16.5202C141.799 15.4642 141.331 14.9362 140.395 14.9362C139.947 14.9362 139.567 15.1242 139.255 15.5002C138.951 15.8682 138.799 16.3002 138.799 16.7962V20.0002H137.695V11.4082Z" fill="white" fill-opacity="0.2"/>
<path d="M146.839 20.1922C145.975 20.1922 145.263 19.8962 144.703 19.3042C144.143 18.7122 143.863 17.9642 143.863 17.0602C143.863 16.1642 144.135 15.4202 144.679 14.8282C145.223 14.2282 145.919 13.9282 146.767 13.9282C147.639 13.9282 148.331 14.2122 148.843 14.7802C149.363 15.3402 149.623 16.1282 149.623 17.1442L149.611 17.2642H144.991C145.007 17.8402 145.199 18.3042 145.567 18.6562C145.935 19.0082 146.375 19.1842 146.887 19.1842C147.591 19.1842 148.143 18.8322 148.543 18.1282L149.527 18.6082C149.263 19.1042 148.895 19.4922 148.423 19.7722C147.959 20.0522 147.431 20.1922 146.839 20.1922ZM145.075 16.3522H148.447C148.415 15.9442 148.247 15.6082 147.943 15.3442C147.647 15.0722 147.247 14.9362 146.743 14.9362C146.327 14.9362 145.967 15.0642 145.663 15.3202C145.367 15.5762 145.171 15.9202 145.075 16.3522Z" fill="white"/>
<path d="M146.839 20.1922C145.975 20.1922 145.263 19.8962 144.703 19.3042C144.143 18.7122 143.863 17.9642 143.863 17.0602C143.863 16.1642 144.135 15.4202 144.679 14.8282C145.223 14.2282 145.919 13.9282 146.767 13.9282C147.639 13.9282 148.331 14.2122 148.843 14.7802C149.363 15.3402 149.623 16.1282 149.623 17.1442L149.611 17.2642H144.991C145.007 17.8402 145.199 18.3042 145.567 18.6562C145.935 19.0082 146.375 19.1842 146.887 19.1842C147.591 19.1842 148.143 18.8322 148.543 18.1282L149.527 18.6082C149.263 19.1042 148.895 19.4922 148.423 19.7722C147.959 20.0522 147.431 20.1922 146.839 20.1922ZM145.075 16.3522H148.447C148.415 15.9442 148.247 15.6082 147.943 15.3442C147.647 15.0722 147.247 14.9362 146.743 14.9362C146.327 14.9362 145.967 15.0642 145.663 15.3202C145.367 15.5762 145.171 15.9202 145.075 16.3522Z" fill="white" fill-opacity="0.2"/>
<path d="M67.901 27.9644H71.135L76.784 43.0004H73.655L72.416 39.4094H66.62L65.381 43.0004H62.252L67.901 27.9644ZM71.492 36.8054L70.148 33.0464L69.602 31.2194H69.434L68.888 33.0464L67.544 36.8054H71.492Z" fill="white"/>
<path d="M67.901 27.9644H71.135L76.784 43.0004H73.655L72.416 39.4094H66.62L65.381 43.0004H62.252L67.901 27.9644ZM71.492 36.8054L70.148 33.0464L69.602 31.2194H69.434L68.888 33.0464L67.544 36.8054H71.492Z" fill="white" fill-opacity="0.2"/>
<path d="M78.2267 32.7104H80.8097V33.9494H80.9777C81.2297 33.5154 81.6217 33.1444 82.1537 32.8364C82.6857 32.5284 83.3437 32.3744 84.1277 32.3744C84.7857 32.3744 85.4087 32.5144 85.9967 32.7944C86.5987 33.0604 87.1237 33.4384 87.5717 33.9284C88.0337 34.4044 88.3977 34.9784 88.6637 35.6504C88.9297 36.3224 89.0627 37.0574 89.0627 37.8554C89.0627 38.6534 88.9297 39.3884 88.6637 40.0604C88.3977 40.7324 88.0337 41.3134 87.5717 41.8034C87.1237 42.2794 86.5987 42.6574 85.9967 42.9374C85.4087 43.2034 84.7857 43.3364 84.1277 43.3364C83.3437 43.3364 82.6857 43.1824 82.1537 42.8744C81.6217 42.5664 81.2297 42.1954 80.9777 41.7614H80.8097L80.9777 43.2314V47.5364H78.2267V32.7104ZM83.5607 40.7954C83.9247 40.7954 84.2677 40.7254 84.5897 40.5854C84.9257 40.4454 85.2197 40.2494 85.4717 39.9974C85.7237 39.7454 85.9267 39.4374 86.0807 39.0734C86.2347 38.7094 86.3117 38.3034 86.3117 37.8554C86.3117 37.4074 86.2347 37.0014 86.0807 36.6374C85.9267 36.2734 85.7237 35.9654 85.4717 35.7134C85.2197 35.4614 84.9257 35.2654 84.5897 35.1254C84.2677 34.9854 83.9247 34.9154 83.5607 34.9154C83.1967 34.9154 82.8467 34.9854 82.5107 35.1254C82.1887 35.2514 81.9017 35.4404 81.6497 35.6924C81.3977 35.9444 81.1947 36.2524 81.0407 36.6164C80.8867 36.9804 80.8097 37.3934 80.8097 37.8554C80.8097 38.3174 80.8867 38.7304 81.0407 39.0944C81.1947 39.4584 81.3977 39.7664 81.6497 40.0184C81.9017 40.2704 82.1887 40.4664 82.5107 40.6064C82.8467 40.7324 83.1967 40.7954 83.5607 40.7954Z" fill="white"/>
<path d="M78.2267 32.7104H80.8097V33.9494H80.9777C81.2297 33.5154 81.6217 33.1444 82.1537 32.8364C82.6857 32.5284 83.3437 32.3744 84.1277 32.3744C84.7857 32.3744 85.4087 32.5144 85.9967 32.7944C86.5987 33.0604 87.1237 33.4384 87.5717 33.9284C88.0337 34.4044 88.3977 34.9784 88.6637 35.6504C88.9297 36.3224 89.0627 37.0574 89.0627 37.8554C89.0627 38.6534 88.9297 39.3884 88.6637 40.0604C88.3977 40.7324 88.0337 41.3134 87.5717 41.8034C87.1237 42.2794 86.5987 42.6574 85.9967 42.9374C85.4087 43.2034 84.7857 43.3364 84.1277 43.3364C83.3437 43.3364 82.6857 43.1824 82.1537 42.8744C81.6217 42.5664 81.2297 42.1954 80.9777 41.7614H80.8097L80.9777 43.2314V47.5364H78.2267V32.7104ZM83.5607 40.7954C83.9247 40.7954 84.2677 40.7254 84.5897 40.5854C84.9257 40.4454 85.2197 40.2494 85.4717 39.9974C85.7237 39.7454 85.9267 39.4374 86.0807 39.0734C86.2347 38.7094 86.3117 38.3034 86.3117 37.8554C86.3117 37.4074 86.2347 37.0014 86.0807 36.6374C85.9267 36.2734 85.7237 35.9654 85.4717 35.7134C85.2197 35.4614 84.9257 35.2654 84.5897 35.1254C84.2677 34.9854 83.9247 34.9154 83.5607 34.9154C83.1967 34.9154 82.8467 34.9854 82.5107 35.1254C82.1887 35.2514 81.9017 35.4404 81.6497 35.6924C81.3977 35.9444 81.1947 36.2524 81.0407 36.6164C80.8867 36.9804 80.8097 37.3934 80.8097 37.8554C80.8097 38.3174 80.8867 38.7304 81.0407 39.0944C81.1947 39.4584 81.3977 39.7664 81.6497 40.0184C81.9017 40.2704 82.1887 40.4664 82.5107 40.6064C82.8467 40.7324 83.1967 40.7954 83.5607 40.7954Z" fill="white" fill-opacity="0.2"/>
<path d="M90.5314 32.7104H93.1144V33.9494H93.2824C93.5344 33.5154 93.9264 33.1444 94.4584 32.8364C94.9904 32.5284 95.6484 32.3744 96.4324 32.3744C97.0904 32.3744 97.7134 32.5144 98.3014 32.7944C98.9034 33.0604 99.4284 33.4384 99.8764 33.9284C100.338 34.4044 100.702 34.9784 100.968 35.6504C101.234 36.3224 101.367 37.0574 101.367 37.8554C101.367 38.6534 101.234 39.3884 100.968 40.0604C100.702 40.7324 100.338 41.3134 99.8764 41.8034C99.4284 42.2794 98.9034 42.6574 98.3014 42.9374C97.7134 43.2034 97.0904 43.3364 96.4324 43.3364C95.6484 43.3364 94.9904 43.1824 94.4584 42.8744C93.9264 42.5664 93.5344 42.1954 93.2824 41.7614H93.1144L93.2824 43.2314V47.5364H90.5314V32.7104ZM95.8654 40.7954C96.2294 40.7954 96.5724 40.7254 96.8944 40.5854C97.2304 40.4454 97.5244 40.2494 97.7764 39.9974C98.0284 39.7454 98.2314 39.4374 98.3854 39.0734C98.5394 38.7094 98.6164 38.3034 98.6164 37.8554C98.6164 37.4074 98.5394 37.0014 98.3854 36.6374C98.2314 36.2734 98.0284 35.9654 97.7764 35.7134C97.5244 35.4614 97.2304 35.2654 96.8944 35.1254C96.5724 34.9854 96.2294 34.9154 95.8654 34.9154C95.5014 34.9154 95.1514 34.9854 94.8154 35.1254C94.4934 35.2514 94.2064 35.4404 93.9544 35.6924C93.7024 35.9444 93.4994 36.2524 93.3454 36.6164C93.1914 36.9804 93.1144 37.3934 93.1144 37.8554C93.1144 38.3174 93.1914 38.7304 93.3454 39.0944C93.4994 39.4584 93.7024 39.7664 93.9544 40.0184C94.2064 40.2704 94.4934 40.4664 94.8154 40.6064C95.1514 40.7324 95.5014 40.7954 95.8654 40.7954Z" fill="white"/>
<path d="M90.5314 32.7104H93.1144V33.9494H93.2824C93.5344 33.5154 93.9264 33.1444 94.4584 32.8364C94.9904 32.5284 95.6484 32.3744 96.4324 32.3744C97.0904 32.3744 97.7134 32.5144 98.3014 32.7944C98.9034 33.0604 99.4284 33.4384 99.8764 33.9284C100.338 34.4044 100.702 34.9784 100.968 35.6504C101.234 36.3224 101.367 37.0574 101.367 37.8554C101.367 38.6534 101.234 39.3884 100.968 40.0604C100.702 40.7324 100.338 41.3134 99.8764 41.8034C99.4284 42.2794 98.9034 42.6574 98.3014 42.9374C97.7134 43.2034 97.0904 43.3364 96.4324 43.3364C95.6484 43.3364 94.9904 43.1824 94.4584 42.8744C93.9264 42.5664 93.5344 42.1954 93.2824 41.7614H93.1144L93.2824 43.2314V47.5364H90.5314V32.7104ZM95.8654 40.7954C96.2294 40.7954 96.5724 40.7254 96.8944 40.5854C97.2304 40.4454 97.5244 40.2494 97.7764 39.9974C98.0284 39.7454 98.2314 39.4374 98.3854 39.0734C98.5394 38.7094 98.6164 38.3034 98.6164 37.8554C98.6164 37.4074 98.5394 37.0014 98.3854 36.6374C98.2314 36.2734 98.0284 35.9654 97.7764 35.7134C97.5244 35.4614 97.2304 35.2654 96.8944 35.1254C96.5724 34.9854 96.2294 34.9154 95.8654 34.9154C95.5014 34.9154 95.1514 34.9854 94.8154 35.1254C94.4934 35.2514 94.2064 35.4404 93.9544 35.6924C93.7024 35.9444 93.4994 36.2524 93.3454 36.6164C93.1914 36.9804 93.1144 37.3934 93.1144 37.8554C93.1144 38.3174 93.1914 38.7304 93.3454 39.0944C93.4994 39.4584 93.7024 39.7664 93.9544 40.0184C94.2064 40.2704 94.4934 40.4664 94.8154 40.6064C95.1514 40.7324 95.5014 40.7954 95.8654 40.7954Z" fill="white" fill-opacity="0.2"/>
<path d="M112.039 43.3364C111.395 43.3364 110.779 43.2454 110.191 43.0634C109.603 42.8814 109.064 42.6084 108.574 42.2444C108.084 41.8804 107.657 41.4394 107.293 40.9214C106.929 40.3894 106.642 39.7734 106.432 39.0734L109.099 38.0234C109.295 38.7794 109.638 39.4094 110.128 39.9134C110.618 40.4034 111.262 40.6484 112.06 40.6484C112.354 40.6484 112.634 40.6134 112.9 40.5434C113.18 40.4594 113.425 40.3474 113.635 40.2074C113.859 40.0534 114.034 39.8644 114.16 39.6404C114.286 39.4164 114.349 39.1574 114.349 38.8634C114.349 38.5834 114.3 38.3314 114.202 38.1074C114.104 37.8834 113.936 37.6734 113.698 37.4774C113.474 37.2814 113.173 37.0924 112.795 36.9104C112.431 36.7284 111.976 36.5394 111.43 36.3434L110.506 36.0074C110.1 35.8674 109.687 35.6784 109.267 35.4404C108.861 35.2024 108.49 34.9154 108.154 34.5794C107.818 34.2434 107.538 33.8514 107.314 33.4034C107.104 32.9414 106.999 32.4234 106.999 31.8494C106.999 31.2614 107.111 30.7154 107.335 30.2114C107.573 29.6934 107.902 29.2454 108.322 28.8674C108.756 28.4754 109.267 28.1744 109.855 27.9644C110.457 27.7404 111.122 27.6284 111.85 27.6284C112.606 27.6284 113.257 27.7334 113.803 27.9434C114.363 28.1394 114.832 28.3984 115.21 28.7204C115.602 29.0284 115.917 29.3714 116.155 29.7494C116.393 30.1274 116.568 30.4844 116.68 30.8204L114.181 31.8704C114.041 31.4504 113.782 31.0724 113.404 30.7364C113.04 30.4004 112.536 30.2324 111.892 30.2324C111.276 30.2324 110.765 30.3794 110.359 30.6734C109.953 30.9534 109.75 31.3244 109.75 31.7864C109.75 32.2344 109.946 32.6194 110.338 32.9414C110.73 33.2494 111.353 33.5504 112.207 33.8444L113.152 34.1594C113.754 34.3694 114.3 34.6144 114.79 34.8944C115.294 35.1604 115.721 35.4824 116.071 35.8604C116.435 36.2384 116.708 36.6724 116.89 37.1624C117.086 37.6384 117.184 38.1914 117.184 38.8214C117.184 39.6054 117.023 40.2844 116.701 40.8584C116.393 41.4184 115.994 41.8804 115.504 42.2444C115.014 42.6084 114.461 42.8814 113.845 43.0634C113.229 43.2454 112.627 43.3364 112.039 43.3364Z" fill="white"/>
<path d="M112.039 43.3364C111.395 43.3364 110.779 43.2454 110.191 43.0634C109.603 42.8814 109.064 42.6084 108.574 42.2444C108.084 41.8804 107.657 41.4394 107.293 40.9214C106.929 40.3894 106.642 39.7734 106.432 39.0734L109.099 38.0234C109.295 38.7794 109.638 39.4094 110.128 39.9134C110.618 40.4034 111.262 40.6484 112.06 40.6484C112.354 40.6484 112.634 40.6134 112.9 40.5434C113.18 40.4594 113.425 40.3474 113.635 40.2074C113.859 40.0534 114.034 39.8644 114.16 39.6404C114.286 39.4164 114.349 39.1574 114.349 38.8634C114.349 38.5834 114.3 38.3314 114.202 38.1074C114.104 37.8834 113.936 37.6734 113.698 37.4774C113.474 37.2814 113.173 37.0924 112.795 36.9104C112.431 36.7284 111.976 36.5394 111.43 36.3434L110.506 36.0074C110.1 35.8674 109.687 35.6784 109.267 35.4404C108.861 35.2024 108.49 34.9154 108.154 34.5794C107.818 34.2434 107.538 33.8514 107.314 33.4034C107.104 32.9414 106.999 32.4234 106.999 31.8494C106.999 31.2614 107.111 30.7154 107.335 30.2114C107.573 29.6934 107.902 29.2454 108.322 28.8674C108.756 28.4754 109.267 28.1744 109.855 27.9644C110.457 27.7404 111.122 27.6284 111.85 27.6284C112.606 27.6284 113.257 27.7334 113.803 27.9434C114.363 28.1394 114.832 28.3984 115.21 28.7204C115.602 29.0284 115.917 29.3714 116.155 29.7494C116.393 30.1274 116.568 30.4844 116.68 30.8204L114.181 31.8704C114.041 31.4504 113.782 31.0724 113.404 30.7364C113.04 30.4004 112.536 30.2324 111.892 30.2324C111.276 30.2324 110.765 30.3794 110.359 30.6734C109.953 30.9534 109.75 31.3244 109.75 31.7864C109.75 32.2344 109.946 32.6194 110.338 32.9414C110.73 33.2494 111.353 33.5504 112.207 33.8444L113.152 34.1594C113.754 34.3694 114.3 34.6144 114.79 34.8944C115.294 35.1604 115.721 35.4824 116.071 35.8604C116.435 36.2384 116.708 36.6724 116.89 37.1624C117.086 37.6384 117.184 38.1914 117.184 38.8214C117.184 39.6054 117.023 40.2844 116.701 40.8584C116.393 41.4184 115.994 41.8804 115.504 42.2444C115.014 42.6084 114.461 42.8814 113.845 43.0634C113.229 43.2454 112.627 43.3364 112.039 43.3364Z" fill="white" fill-opacity="0.2"/>
<path d="M119.784 35.0624H117.978V32.7104H119.784V29.5604H122.535V32.7104H125.055V35.0624H122.535V39.0524C122.535 39.2904 122.556 39.5144 122.598 39.7244C122.654 39.9204 122.752 40.0884 122.892 40.2284C123.088 40.4524 123.368 40.5644 123.732 40.5644C123.97 40.5644 124.159 40.5434 124.299 40.5014C124.439 40.4454 124.572 40.3754 124.698 40.2914L125.475 42.7064C125.153 42.8604 124.803 42.9724 124.425 43.0424C124.061 43.1264 123.655 43.1684 123.207 43.1684C122.689 43.1684 122.22 43.0914 121.8 42.9374C121.394 42.7694 121.051 42.5454 120.771 42.2654C120.113 41.6354 119.784 40.7394 119.784 39.5774V35.0624Z" fill="white"/>
<path d="M119.784 35.0624H117.978V32.7104H119.784V29.5604H122.535V32.7104H125.055V35.0624H122.535V39.0524C122.535 39.2904 122.556 39.5144 122.598 39.7244C122.654 39.9204 122.752 40.0884 122.892 40.2284C123.088 40.4524 123.368 40.5644 123.732 40.5644C123.97 40.5644 124.159 40.5434 124.299 40.5014C124.439 40.4454 124.572 40.3754 124.698 40.2914L125.475 42.7064C125.153 42.8604 124.803 42.9724 124.425 43.0424C124.061 43.1264 123.655 43.1684 123.207 43.1684C122.689 43.1684 122.22 43.0914 121.8 42.9374C121.394 42.7694 121.051 42.5454 120.771 42.2654C120.113 41.6354 119.784 40.7394 119.784 39.5774V35.0624Z" fill="white" fill-opacity="0.2"/>
<path d="M131.848 32.3744C132.646 32.3744 133.374 32.5144 134.032 32.7944C134.704 33.0604 135.278 33.4384 135.754 33.9284C136.244 34.4044 136.622 34.9784 136.888 35.6504C137.168 36.3224 137.308 37.0574 137.308 37.8554C137.308 38.6534 137.168 39.3884 136.888 40.0604C136.622 40.7324 136.244 41.3134 135.754 41.8034C135.278 42.2794 134.704 42.6574 134.032 42.9374C133.374 43.2034 132.646 43.3364 131.848 43.3364C131.05 43.3364 130.315 43.2034 129.643 42.9374C128.985 42.6574 128.411 42.2794 127.921 41.8034C127.445 41.3134 127.067 40.7324 126.787 40.0604C126.521 39.3884 126.388 38.6534 126.388 37.8554C126.388 37.0574 126.521 36.3224 126.787 35.6504C127.067 34.9784 127.445 34.4044 127.921 33.9284C128.411 33.4384 128.985 33.0604 129.643 32.7944C130.315 32.5144 131.05 32.3744 131.848 32.3744ZM131.848 40.7954C132.198 40.7954 132.534 40.7324 132.856 40.6064C133.192 40.4664 133.486 40.2704 133.738 40.0184C133.99 39.7664 134.186 39.4584 134.326 39.0944C134.48 38.7304 134.557 38.3174 134.557 37.8554C134.557 37.3934 134.48 36.9804 134.326 36.6164C134.186 36.2524 133.99 35.9444 133.738 35.6924C133.486 35.4404 133.192 35.2514 132.856 35.1254C132.534 34.9854 132.198 34.9154 131.848 34.9154C131.484 34.9154 131.141 34.9854 130.819 35.1254C130.497 35.2514 130.21 35.4404 129.958 35.6924C129.706 35.9444 129.503 36.2524 129.349 36.6164C129.209 36.9804 129.139 37.3934 129.139 37.8554C129.139 38.3174 129.209 38.7304 129.349 39.0944C129.503 39.4584 129.706 39.7664 129.958 40.0184C130.21 40.2704 130.497 40.4664 130.819 40.6064C131.141 40.7324 131.484 40.7954 131.848 40.7954Z" fill="white"/>
<path d="M131.848 32.3744C132.646 32.3744 133.374 32.5144 134.032 32.7944C134.704 33.0604 135.278 33.4384 135.754 33.9284C136.244 34.4044 136.622 34.9784 136.888 35.6504C137.168 36.3224 137.308 37.0574 137.308 37.8554C137.308 38.6534 137.168 39.3884 136.888 40.0604C136.622 40.7324 136.244 41.3134 135.754 41.8034C135.278 42.2794 134.704 42.6574 134.032 42.9374C133.374 43.2034 132.646 43.3364 131.848 43.3364C131.05 43.3364 130.315 43.2034 129.643 42.9374C128.985 42.6574 128.411 42.2794 127.921 41.8034C127.445 41.3134 127.067 40.7324 126.787 40.0604C126.521 39.3884 126.388 38.6534 126.388 37.8554C126.388 37.0574 126.521 36.3224 126.787 35.6504C127.067 34.9784 127.445 34.4044 127.921 33.9284C128.411 33.4384 128.985 33.0604 129.643 32.7944C130.315 32.5144 131.05 32.3744 131.848 32.3744ZM131.848 40.7954C132.198 40.7954 132.534 40.7324 132.856 40.6064C133.192 40.4664 133.486 40.2704 133.738 40.0184C133.99 39.7664 134.186 39.4584 134.326 39.0944C134.48 38.7304 134.557 38.3174 134.557 37.8554C134.557 37.3934 134.48 36.9804 134.326 36.6164C134.186 36.2524 133.99 35.9444 133.738 35.6924C133.486 35.4404 133.192 35.2514 132.856 35.1254C132.534 34.9854 132.198 34.9154 131.848 34.9154C131.484 34.9154 131.141 34.9854 130.819 35.1254C130.497 35.2514 130.21 35.4404 129.958 35.6924C129.706 35.9444 129.503 36.2524 129.349 36.6164C129.209 36.9804 129.139 37.3934 129.139 37.8554C129.139 38.3174 129.209 38.7304 129.349 39.0944C129.503 39.4584 129.706 39.7664 129.958 40.0184C130.21 40.2704 130.497 40.4664 130.819 40.6064C131.141 40.7324 131.484 40.7954 131.848 40.7954Z" fill="white" fill-opacity="0.2"/>
<path d="M138.87 32.7104H141.453V34.1384H141.621C141.747 33.8864 141.915 33.6554 142.125 33.4454C142.335 33.2354 142.566 33.0534 142.818 32.8994C143.084 32.7454 143.364 32.6264 143.658 32.5424C143.966 32.4584 144.267 32.4164 144.561 32.4164C144.925 32.4164 145.233 32.4514 145.485 32.5214C145.751 32.5914 145.975 32.6824 146.157 32.7944L145.422 35.2934C145.254 35.2094 145.065 35.1464 144.855 35.1044C144.659 35.0484 144.414 35.0204 144.12 35.0204C143.742 35.0204 143.399 35.0974 143.091 35.2514C142.783 35.3914 142.517 35.5944 142.293 35.8604C142.083 36.1264 141.915 36.4414 141.789 36.8054C141.677 37.1554 141.621 37.5404 141.621 37.9604V43.0004H138.87V32.7104Z" fill="white"/>
<path d="M138.87 32.7104H141.453V34.1384H141.621C141.747 33.8864 141.915 33.6554 142.125 33.4454C142.335 33.2354 142.566 33.0534 142.818 32.8994C143.084 32.7454 143.364 32.6264 143.658 32.5424C143.966 32.4584 144.267 32.4164 144.561 32.4164C144.925 32.4164 145.233 32.4514 145.485 32.5214C145.751 32.5914 145.975 32.6824 146.157 32.7944L145.422 35.2934C145.254 35.2094 145.065 35.1464 144.855 35.1044C144.659 35.0484 144.414 35.0204 144.12 35.0204C143.742 35.0204 143.399 35.0974 143.091 35.2514C142.783 35.3914 142.517 35.5944 142.293 35.8604C142.083 36.1264 141.915 36.4414 141.789 36.8054C141.677 37.1554 141.621 37.5404 141.621 37.9604V43.0004H138.87V32.7104Z" fill="white" fill-opacity="0.2"/>
<path d="M156.53 40.5224C156.054 41.3624 155.41 42.0414 154.598 42.5594C153.8 43.0774 152.82 43.3364 151.658 43.3364C150.874 43.3364 150.146 43.2034 149.474 42.9374C148.816 42.6574 148.242 42.2724 147.752 41.7824C147.262 41.2924 146.877 40.7184 146.597 40.0604C146.331 39.3884 146.198 38.6534 146.198 37.8554C146.198 37.1134 146.331 36.4134 146.597 35.7554C146.863 35.0834 147.234 34.5024 147.71 34.0124C148.186 33.5084 148.746 33.1094 149.39 32.8154C150.048 32.5214 150.769 32.3744 151.553 32.3744C152.379 32.3744 153.114 32.5144 153.758 32.7944C154.402 33.0604 154.941 33.4384 155.375 33.9284C155.809 34.4044 156.138 34.9714 156.362 35.6294C156.586 36.2874 156.698 37.0014 156.698 37.7714C156.698 37.8694 156.698 37.9534 156.698 38.0234C156.684 38.1074 156.677 38.1844 156.677 38.2544C156.663 38.3244 156.656 38.4014 156.656 38.4854H148.907C148.963 38.9054 149.075 39.2694 149.243 39.5774C149.425 39.8714 149.642 40.1234 149.894 40.3334C150.16 40.5294 150.447 40.6764 150.755 40.7744C151.063 40.8584 151.378 40.9004 151.7 40.9004C152.33 40.9004 152.848 40.7604 153.254 40.4804C153.674 40.1864 154.003 39.8224 154.241 39.3884L156.53 40.5224ZM154.031 36.5324C154.017 36.3504 153.954 36.1474 153.842 35.9234C153.744 35.6994 153.59 35.4894 153.38 35.2934C153.184 35.0974 152.932 34.9364 152.624 34.8104C152.33 34.6844 151.973 34.6214 151.553 34.6214C150.965 34.6214 150.447 34.7894 149.999 35.1254C149.551 35.4614 149.236 35.9304 149.054 36.5324H154.031Z" fill="white"/>
<path d="M156.53 40.5224C156.054 41.3624 155.41 42.0414 154.598 42.5594C153.8 43.0774 152.82 43.3364 151.658 43.3364C150.874 43.3364 150.146 43.2034 149.474 42.9374C148.816 42.6574 148.242 42.2724 147.752 41.7824C147.262 41.2924 146.877 40.7184 146.597 40.0604C146.331 39.3884 146.198 38.6534 146.198 37.8554C146.198 37.1134 146.331 36.4134 146.597 35.7554C146.863 35.0834 147.234 34.5024 147.71 34.0124C148.186 33.5084 148.746 33.1094 149.39 32.8154C150.048 32.5214 150.769 32.3744 151.553 32.3744C152.379 32.3744 153.114 32.5144 153.758 32.7944C154.402 33.0604 154.941 33.4384 155.375 33.9284C155.809 34.4044 156.138 34.9714 156.362 35.6294C156.586 36.2874 156.698 37.0014 156.698 37.7714C156.698 37.8694 156.698 37.9534 156.698 38.0234C156.684 38.1074 156.677 38.1844 156.677 38.2544C156.663 38.3244 156.656 38.4014 156.656 38.4854H148.907C148.963 38.9054 149.075 39.2694 149.243 39.5774C149.425 39.8714 149.642 40.1234 149.894 40.3334C150.16 40.5294 150.447 40.6764 150.755 40.7744C151.063 40.8584 151.378 40.9004 151.7 40.9004C152.33 40.9004 152.848 40.7604 153.254 40.4804C153.674 40.1864 154.003 39.8224 154.241 39.3884L156.53 40.5224ZM154.031 36.5324C154.017 36.3504 153.954 36.1474 153.842 35.9234C153.744 35.6994 153.59 35.4894 153.38 35.2934C153.184 35.0974 152.932 34.9364 152.624 34.8104C152.33 34.6844 151.973 34.6214 151.553 34.6214C150.965 34.6214 150.447 34.7894 149.999 35.1254C149.551 35.4614 149.236 35.9304 149.054 36.5324H154.031Z" fill="white" fill-opacity="0.2"/>
<path d="M39.8375 44.49C38.1225 46.1525 36.25 45.89 34.4475 45.1025C32.54 44.2975 30.79 44.2625 28.7775 45.1025C26.2575 46.1875 24.9275 45.8725 23.4225 44.49C14.8825 35.6875 16.1425 22.2825 25.8375 21.7925C28.2 21.915 29.845 23.0875 31.2275 23.1925C33.2925 22.7725 35.27 21.565 37.475 21.7225C40.1175 21.9325 42.1125 22.9825 43.425 24.8725C37.965 28.145 39.26 35.3375 44.265 37.35C43.2675 39.975 41.9725 42.5825 39.82 44.5075L39.8375 44.49V44.49ZM31.0525 21.6875C30.79 17.785 33.9575 14.565 37.5975 14.25C38.105 18.765 33.5025 22.125 31.0525 21.6875Z" fill="white"/>
<path d="M39.8375 44.49C38.1225 46.1525 36.25 45.89 34.4475 45.1025C32.54 44.2975 30.79 44.2625 28.7775 45.1025C26.2575 46.1875 24.9275 45.8725 23.4225 44.49C14.8825 35.6875 16.1425 22.2825 25.8375 21.7925C28.2 21.915 29.845 23.0875 31.2275 23.1925C33.2925 22.7725 35.27 21.565 37.475 21.7225C40.1175 21.9325 42.1125 22.9825 43.425 24.8725C37.965 28.145 39.26 35.3375 44.265 37.35C43.2675 39.975 41.9725 42.5825 39.82 44.5075L39.8375 44.49V44.49ZM31.0525 21.6875C30.79 17.785 33.9575 14.565 37.5975 14.25C38.105 18.765 33.5025 22.125 31.0525 21.6875Z" fill="white" fill-opacity="0.2"/>
</svg>
