<svg width="208" height="58" viewBox="0 0 208 58" fill="none" xmlns="http://www.w3.org/2000/svg">
<rect width="208" height="58" rx="6" fill="black"/>
<path d="M71.1314 16.0518C71.1314 17.2518 70.7754 18.2078 70.0634 18.9198C69.2634 19.7678 68.2114 20.1918 66.9074 20.1918C65.6594 20.1918 64.6034 19.7598 63.7394 18.8958C62.8754 18.0318 62.4434 16.9678 62.4434 15.7038C62.4434 14.4398 62.8754 13.3758 63.7394 12.5118C64.6034 11.6478 65.6594 11.2158 66.9074 11.2158C67.5394 11.2158 68.1354 11.3278 68.6954 11.5518C69.2554 11.7758 69.7154 12.0918 70.0754 12.4998L69.2834 13.2918C69.0194 12.9718 68.6754 12.7238 68.2514 12.5478C67.8354 12.3638 67.3874 12.2718 66.9074 12.2718C65.9714 12.2718 65.1794 12.5958 64.5314 13.2438C63.8914 13.8998 63.5714 14.7198 63.5714 15.7038C63.5714 16.6878 63.8914 17.5078 64.5314 18.1638C65.1794 18.8118 65.9714 19.1358 66.9074 19.1358C67.7634 19.1358 68.4754 18.8958 69.0434 18.4158C69.6114 17.9358 69.9394 17.2758 70.0274 16.4358H66.9074V15.4038H71.0714C71.1114 15.6278 71.1314 15.8438 71.1314 16.0518Z" fill="white"/>
<path d="M71.1314 16.0518C71.1314 17.2518 70.7754 18.2078 70.0634 18.9198C69.2634 19.7678 68.2114 20.1918 66.9074 20.1918C65.6594 20.1918 64.6034 19.7598 63.7394 18.8958C62.8754 18.0318 62.4434 16.9678 62.4434 15.7038C62.4434 14.4398 62.8754 13.3758 63.7394 12.5118C64.6034 11.6478 65.6594 11.2158 66.9074 11.2158C67.5394 11.2158 68.1354 11.3278 68.6954 11.5518C69.2554 11.7758 69.7154 12.0918 70.0754 12.4998L69.2834 13.2918C69.0194 12.9718 68.6754 12.7238 68.2514 12.5478C67.8354 12.3638 67.3874 12.2718 66.9074 12.2718C65.9714 12.2718 65.1794 12.5958 64.5314 13.2438C63.8914 13.8998 63.5714 14.7198 63.5714 15.7038C63.5714 16.6878 63.8914 17.5078 64.5314 18.1638C65.1794 18.8118 65.9714 19.1358 66.9074 19.1358C67.7634 19.1358 68.4754 18.8958 69.0434 18.4158C69.6114 17.9358 69.9394 17.2758 70.0274 16.4358H66.9074V15.4038H71.0714C71.1114 15.6278 71.1314 15.8438 71.1314 16.0518Z" fill="white" fill-opacity="0.2"/>
<path d="M77.4887 11.4078V12.4638H73.5767V15.1878H77.1047V16.2198H73.5767V18.9438H77.4887V19.9998H72.4727V11.4078H77.4887Z" fill="white"/>
<path d="M77.4887 11.4078V12.4638H73.5767V15.1878H77.1047V16.2198H73.5767V18.9438H77.4887V19.9998H72.4727V11.4078H77.4887Z" fill="white" fill-opacity="0.2"/>
<path d="M81.9046 12.4638V19.9998H80.8006V12.4638H78.4006V11.4078H84.3046V12.4638H81.9046Z" fill="white"/>
<path d="M81.9046 12.4638V19.9998H80.8006V12.4638H78.4006V11.4078H84.3046V12.4638H81.9046Z" fill="white" fill-opacity="0.2"/>
<path d="M89.1978 19.9998H88.0938V11.4078H89.1978V19.9998Z" fill="white"/>
<path d="M89.1978 19.9998H88.0938V11.4078H89.1978V19.9998Z" fill="white" fill-opacity="0.2"/>
<path d="M93.8578 12.4638V19.9998H92.7538V12.4638H90.3538V11.4078H96.2578V12.4638H93.8578Z" fill="white"/>
<path d="M93.8578 12.4638V19.9998H92.7538V12.4638H90.3538V11.4078H96.2578V12.4638H93.8578Z" fill="white" fill-opacity="0.2"/>
<path d="M108.225 15.7038C108.225 16.9758 107.801 18.0398 106.953 18.8958C106.097 19.7598 105.049 20.1918 103.809 20.1918C102.561 20.1918 101.513 19.7598 100.665 18.8958C99.8166 18.0398 99.3926 16.9758 99.3926 15.7038C99.3926 14.4318 99.8166 13.3678 100.665 12.5118C101.513 11.6478 102.561 11.2158 103.809 11.2158C105.057 11.2158 106.105 11.6518 106.953 12.5238C107.801 13.3798 108.225 14.4398 108.225 15.7038ZM100.521 15.7038C100.521 16.6958 100.833 17.5158 101.457 18.1638C102.089 18.8118 102.873 19.1358 103.809 19.1358C104.745 19.1358 105.525 18.8118 106.149 18.1638C106.781 17.5238 107.097 16.7038 107.097 15.7038C107.097 14.7038 106.781 13.8838 106.149 13.2438C105.525 12.5958 104.745 12.2718 103.809 12.2718C102.873 12.2718 102.089 12.5958 101.457 13.2438C100.833 13.8918 100.521 14.7118 100.521 15.7038Z" fill="white"/>
<path d="M108.225 15.7038C108.225 16.9758 107.801 18.0398 106.953 18.8958C106.097 19.7598 105.049 20.1918 103.809 20.1918C102.561 20.1918 101.513 19.7598 100.665 18.8958C99.8166 18.0398 99.3926 16.9758 99.3926 15.7038C99.3926 14.4318 99.8166 13.3678 100.665 12.5118C101.513 11.6478 102.561 11.2158 103.809 11.2158C105.057 11.2158 106.105 11.6518 106.953 12.5238C107.801 13.3798 108.225 14.4398 108.225 15.7038ZM100.521 15.7038C100.521 16.6958 100.833 17.5158 101.457 18.1638C102.089 18.8118 102.873 19.1358 103.809 19.1358C104.745 19.1358 105.525 18.8118 106.149 18.1638C106.781 17.5238 107.097 16.7038 107.097 15.7038C107.097 14.7038 106.781 13.8838 106.149 13.2438C105.525 12.5958 104.745 12.2718 103.809 12.2718C102.873 12.2718 102.089 12.5958 101.457 13.2438C100.833 13.8918 100.521 14.7118 100.521 15.7038Z" fill="white" fill-opacity="0.2"/>
<path d="M110.631 19.9998H109.527V11.4078H110.871L115.047 18.0918H115.095L115.047 16.4358V11.4078H116.151V19.9998H114.999L110.631 12.9918H110.583L110.631 14.6478V19.9998Z" fill="white"/>
<path d="M110.631 19.9998H109.527V11.4078H110.871L115.047 18.0918H115.095L115.047 16.4358V11.4078H116.151V19.9998H114.999L110.631 12.9918H110.583L110.631 14.6478V19.9998Z" fill="white" fill-opacity="0.2"/>
<path d="M70.6504 34.7469H78.0214C78.0634 34.9149 78.0984 35.1179 78.1264 35.3559C78.1544 35.5939 78.1684 35.8319 78.1684 36.0699C78.1684 37.0359 78.0214 37.9459 77.7274 38.7999C77.4334 39.6539 76.9714 40.4169 76.3414 41.0889C75.6694 41.8029 74.8644 42.3559 73.9264 42.7479C72.9884 43.1399 71.9174 43.3359 70.7134 43.3359C69.6214 43.3359 68.5924 43.1399 67.6264 42.7479C66.6604 42.3559 65.8204 41.8099 65.1064 41.1099C64.3924 40.4099 63.8254 39.5839 63.4054 38.6319C62.9854 37.6659 62.7754 36.6159 62.7754 35.4819C62.7754 34.3479 62.9854 33.3049 63.4054 32.3529C63.8254 31.3869 64.3924 30.5539 65.1064 29.8539C65.8204 29.1539 66.6604 28.6079 67.6264 28.2159C68.5924 27.8239 69.6214 27.6279 70.7134 27.6279C71.9314 27.6279 73.0164 27.8379 73.9684 28.2579C74.9344 28.6779 75.7604 29.2589 76.4464 30.0009L74.4934 31.9119C74.0034 31.3939 73.4574 31.0019 72.8554 30.7359C72.2534 30.4559 71.5324 30.3159 70.6924 30.3159C70.0064 30.3159 69.3554 30.4419 68.7394 30.6939C68.1234 30.9319 67.5844 31.2749 67.1224 31.7229C66.6604 32.1709 66.2894 32.7169 66.0094 33.3609C65.7434 33.9909 65.6104 34.6979 65.6104 35.4819C65.6104 36.2659 65.7434 36.9799 66.0094 37.6239C66.2894 38.2539 66.6604 38.7929 67.1224 39.2409C67.5984 39.6889 68.1444 40.0389 68.7604 40.2909C69.3764 40.5289 70.0344 40.6479 70.7344 40.6479C71.5324 40.6479 72.2044 40.5359 72.7504 40.3119C73.3104 40.0739 73.7864 39.7729 74.1784 39.4089C74.4584 39.1569 74.6964 38.8419 74.8924 38.4639C75.1024 38.0719 75.2634 37.6379 75.3754 37.1619H70.6504V34.7469Z" fill="white"/>
<path d="M70.6504 34.7469H78.0214C78.0634 34.9149 78.0984 35.1179 78.1264 35.3559C78.1544 35.5939 78.1684 35.8319 78.1684 36.0699C78.1684 37.0359 78.0214 37.9459 77.7274 38.7999C77.4334 39.6539 76.9714 40.4169 76.3414 41.0889C75.6694 41.8029 74.8644 42.3559 73.9264 42.7479C72.9884 43.1399 71.9174 43.3359 70.7134 43.3359C69.6214 43.3359 68.5924 43.1399 67.6264 42.7479C66.6604 42.3559 65.8204 41.8099 65.1064 41.1099C64.3924 40.4099 63.8254 39.5839 63.4054 38.6319C62.9854 37.6659 62.7754 36.6159 62.7754 35.4819C62.7754 34.3479 62.9854 33.3049 63.4054 32.3529C63.8254 31.3869 64.3924 30.5539 65.1064 29.8539C65.8204 29.1539 66.6604 28.6079 67.6264 28.2159C68.5924 27.8239 69.6214 27.6279 70.7134 27.6279C71.9314 27.6279 73.0164 27.8379 73.9684 28.2579C74.9344 28.6779 75.7604 29.2589 76.4464 30.0009L74.4934 31.9119C74.0034 31.3939 73.4574 31.0019 72.8554 30.7359C72.2534 30.4559 71.5324 30.3159 70.6924 30.3159C70.0064 30.3159 69.3554 30.4419 68.7394 30.6939C68.1234 30.9319 67.5844 31.2749 67.1224 31.7229C66.6604 32.1709 66.2894 32.7169 66.0094 33.3609C65.7434 33.9909 65.6104 34.6979 65.6104 35.4819C65.6104 36.2659 65.7434 36.9799 66.0094 37.6239C66.2894 38.2539 66.6604 38.7929 67.1224 39.2409C67.5984 39.6889 68.1444 40.0389 68.7604 40.2909C69.3764 40.5289 70.0344 40.6479 70.7344 40.6479C71.5324 40.6479 72.2044 40.5359 72.7504 40.3119C73.3104 40.0739 73.7864 39.7729 74.1784 39.4089C74.4584 39.1569 74.6964 38.8419 74.8924 38.4639C75.1024 38.0719 75.2634 37.6379 75.3754 37.1619H70.6504V34.7469Z" fill="white" fill-opacity="0.2"/>
<path d="M84.9448 32.3739C85.7428 32.3739 86.4708 32.5139 87.1288 32.7939C87.8008 33.0599 88.3748 33.4379 88.8508 33.9279C89.3408 34.4039 89.7188 34.9779 89.9848 35.6499C90.2648 36.3219 90.4048 37.0569 90.4048 37.8549C90.4048 38.6529 90.2648 39.3879 89.9848 40.0599C89.7188 40.7319 89.3408 41.3129 88.8508 41.8029C88.3748 42.2789 87.8008 42.6569 87.1288 42.9369C86.4708 43.2029 85.7428 43.3359 84.9448 43.3359C84.1468 43.3359 83.4118 43.2029 82.7398 42.9369C82.0818 42.6569 81.5078 42.2789 81.0178 41.8029C80.5418 41.3129 80.1638 40.7319 79.8838 40.0599C79.6178 39.3879 79.4848 38.6529 79.4848 37.8549C79.4848 37.0569 79.6178 36.3219 79.8838 35.6499C80.1638 34.9779 80.5418 34.4039 81.0178 33.9279C81.5078 33.4379 82.0818 33.0599 82.7398 32.7939C83.4118 32.5139 84.1468 32.3739 84.9448 32.3739ZM84.9448 40.7949C85.2948 40.7949 85.6308 40.7319 85.9528 40.6059C86.2888 40.4659 86.5828 40.2699 86.8348 40.0179C87.0868 39.7659 87.2828 39.4579 87.4228 39.0939C87.5768 38.7299 87.6538 38.3169 87.6538 37.8549C87.6538 37.3929 87.5768 36.9799 87.4228 36.6159C87.2828 36.2519 87.0868 35.9439 86.8348 35.6919C86.5828 35.4399 86.2888 35.2509 85.9528 35.1249C85.6308 34.9849 85.2948 34.9149 84.9448 34.9149C84.5808 34.9149 84.2378 34.9849 83.9158 35.1249C83.5938 35.2509 83.3068 35.4399 83.0548 35.6919C82.8028 35.9439 82.5998 36.2519 82.4458 36.6159C82.3058 36.9799 82.2358 37.3929 82.2358 37.8549C82.2358 38.3169 82.3058 38.7299 82.4458 39.0939C82.5998 39.4579 82.8028 39.7659 83.0548 40.0179C83.3068 40.2699 83.5938 40.4659 83.9158 40.6059C84.2378 40.7319 84.5808 40.7949 84.9448 40.7949Z" fill="white"/>
<path d="M84.9448 32.3739C85.7428 32.3739 86.4708 32.5139 87.1288 32.7939C87.8008 33.0599 88.3748 33.4379 88.8508 33.9279C89.3408 34.4039 89.7188 34.9779 89.9848 35.6499C90.2648 36.3219 90.4048 37.0569 90.4048 37.8549C90.4048 38.6529 90.2648 39.3879 89.9848 40.0599C89.7188 40.7319 89.3408 41.3129 88.8508 41.8029C88.3748 42.2789 87.8008 42.6569 87.1288 42.9369C86.4708 43.2029 85.7428 43.3359 84.9448 43.3359C84.1468 43.3359 83.4118 43.2029 82.7398 42.9369C82.0818 42.6569 81.5078 42.2789 81.0178 41.8029C80.5418 41.3129 80.1638 40.7319 79.8838 40.0599C79.6178 39.3879 79.4848 38.6529 79.4848 37.8549C79.4848 37.0569 79.6178 36.3219 79.8838 35.6499C80.1638 34.9779 80.5418 34.4039 81.0178 33.9279C81.5078 33.4379 82.0818 33.0599 82.7398 32.7939C83.4118 32.5139 84.1468 32.3739 84.9448 32.3739ZM84.9448 40.7949C85.2948 40.7949 85.6308 40.7319 85.9528 40.6059C86.2888 40.4659 86.5828 40.2699 86.8348 40.0179C87.0868 39.7659 87.2828 39.4579 87.4228 39.0939C87.5768 38.7299 87.6538 38.3169 87.6538 37.8549C87.6538 37.3929 87.5768 36.9799 87.4228 36.6159C87.2828 36.2519 87.0868 35.9439 86.8348 35.6919C86.5828 35.4399 86.2888 35.2509 85.9528 35.1249C85.6308 34.9849 85.2948 34.9149 84.9448 34.9149C84.5808 34.9149 84.2378 34.9849 83.9158 35.1249C83.5938 35.2509 83.3068 35.4399 83.0548 35.6919C82.8028 35.9439 82.5998 36.2519 82.4458 36.6159C82.3058 36.9799 82.2358 37.3929 82.2358 37.8549C82.2358 38.3169 82.3058 38.7299 82.4458 39.0939C82.5998 39.4579 82.8028 39.7659 83.0548 40.0179C83.3068 40.2699 83.5938 40.4659 83.9158 40.6059C84.2378 40.7319 84.5808 40.7949 84.9448 40.7949Z" fill="white" fill-opacity="0.2"/>
<path d="M97.0444 32.3739C97.8424 32.3739 98.5704 32.5139 99.2284 32.7939C99.9004 33.0599 100.474 33.4379 100.95 33.9279C101.44 34.4039 101.818 34.9779 102.084 35.6499C102.364 36.3219 102.504 37.0569 102.504 37.8549C102.504 38.6529 102.364 39.3879 102.084 40.0599C101.818 40.7319 101.44 41.3129 100.95 41.8029C100.474 42.2789 99.9004 42.6569 99.2284 42.9369C98.5704 43.2029 97.8424 43.3359 97.0444 43.3359C96.2464 43.3359 95.5114 43.2029 94.8394 42.9369C94.1814 42.6569 93.6074 42.2789 93.1174 41.8029C92.6414 41.3129 92.2634 40.7319 91.9834 40.0599C91.7174 39.3879 91.5844 38.6529 91.5844 37.8549C91.5844 37.0569 91.7174 36.3219 91.9834 35.6499C92.2634 34.9779 92.6414 34.4039 93.1174 33.9279C93.6074 33.4379 94.1814 33.0599 94.8394 32.7939C95.5114 32.5139 96.2464 32.3739 97.0444 32.3739ZM97.0444 40.7949C97.3944 40.7949 97.7304 40.7319 98.0524 40.6059C98.3884 40.4659 98.6824 40.2699 98.9344 40.0179C99.1864 39.7659 99.3824 39.4579 99.5224 39.0939C99.6764 38.7299 99.7534 38.3169 99.7534 37.8549C99.7534 37.3929 99.6764 36.9799 99.5224 36.6159C99.3824 36.2519 99.1864 35.9439 98.9344 35.6919C98.6824 35.4399 98.3884 35.2509 98.0524 35.1249C97.7304 34.9849 97.3944 34.9149 97.0444 34.9149C96.6804 34.9149 96.3374 34.9849 96.0154 35.1249C95.6934 35.2509 95.4064 35.4399 95.1544 35.6919C94.9024 35.9439 94.6994 36.2519 94.5454 36.6159C94.4054 36.9799 94.3354 37.3929 94.3354 37.8549C94.3354 38.3169 94.4054 38.7299 94.5454 39.0939C94.6994 39.4579 94.9024 39.7659 95.1544 40.0179C95.4064 40.2699 95.6934 40.4659 96.0154 40.6059C96.3374 40.7319 96.6804 40.7949 97.0444 40.7949Z" fill="white"/>
<path d="M97.0444 32.3739C97.8424 32.3739 98.5704 32.5139 99.2284 32.7939C99.9004 33.0599 100.474 33.4379 100.95 33.9279C101.44 34.4039 101.818 34.9779 102.084 35.6499C102.364 36.3219 102.504 37.0569 102.504 37.8549C102.504 38.6529 102.364 39.3879 102.084 40.0599C101.818 40.7319 101.44 41.3129 100.95 41.8029C100.474 42.2789 99.9004 42.6569 99.2284 42.9369C98.5704 43.2029 97.8424 43.3359 97.0444 43.3359C96.2464 43.3359 95.5114 43.2029 94.8394 42.9369C94.1814 42.6569 93.6074 42.2789 93.1174 41.8029C92.6414 41.3129 92.2634 40.7319 91.9834 40.0599C91.7174 39.3879 91.5844 38.6529 91.5844 37.8549C91.5844 37.0569 91.7174 36.3219 91.9834 35.6499C92.2634 34.9779 92.6414 34.4039 93.1174 33.9279C93.6074 33.4379 94.1814 33.0599 94.8394 32.7939C95.5114 32.5139 96.2464 32.3739 97.0444 32.3739ZM97.0444 40.7949C97.3944 40.7949 97.7304 40.7319 98.0524 40.6059C98.3884 40.4659 98.6824 40.2699 98.9344 40.0179C99.1864 39.7659 99.3824 39.4579 99.5224 39.0939C99.6764 38.7299 99.7534 38.3169 99.7534 37.8549C99.7534 37.3929 99.6764 36.9799 99.5224 36.6159C99.3824 36.2519 99.1864 35.9439 98.9344 35.6919C98.6824 35.4399 98.3884 35.2509 98.0524 35.1249C97.7304 34.9849 97.3944 34.9149 97.0444 34.9149C96.6804 34.9149 96.3374 34.9849 96.0154 35.1249C95.6934 35.2509 95.4064 35.4399 95.1544 35.6919C94.9024 35.9439 94.6994 36.2519 94.5454 36.6159C94.4054 36.9799 94.3354 37.3929 94.3354 37.8549C94.3354 38.3169 94.4054 38.7299 94.5454 39.0939C94.6994 39.4579 94.9024 39.7659 95.1544 40.0179C95.4064 40.2699 95.6934 40.4659 96.0154 40.6059C96.3374 40.7319 96.6804 40.7949 97.0444 40.7949Z" fill="white" fill-opacity="0.2"/>
<path d="M109.018 47.8719C108.29 47.8719 107.639 47.7739 107.065 47.5779C106.505 47.3959 106.015 47.1509 105.595 46.8429C105.175 46.5489 104.825 46.2199 104.545 45.8559C104.265 45.4919 104.062 45.1279 103.936 44.7639L106.561 43.7139C106.757 44.2599 107.079 44.6799 107.527 44.9739C107.975 45.2819 108.472 45.4359 109.018 45.4359C109.886 45.4359 110.572 45.1629 111.076 44.6169C111.58 44.0849 111.832 43.3359 111.832 42.3699V41.6559H111.664C111.342 42.1039 110.915 42.4609 110.383 42.7269C109.865 42.9789 109.249 43.1049 108.535 43.1049C107.919 43.1049 107.317 42.9789 106.729 42.7269C106.155 42.4749 105.644 42.1179 105.196 41.6559C104.748 41.1799 104.384 40.6129 104.104 39.9549C103.824 39.2969 103.684 38.5619 103.684 37.7499C103.684 36.9379 103.824 36.2029 104.104 35.5449C104.384 34.8729 104.748 34.3059 105.196 33.8439C105.644 33.3679 106.155 33.0039 106.729 32.7519C107.317 32.4999 107.919 32.3739 108.535 32.3739C109.249 32.3739 109.865 32.5069 110.383 32.7729C110.915 33.0249 111.342 33.3749 111.664 33.8229H111.832V32.7099H114.457V42.2649C114.457 43.1329 114.324 43.9099 114.058 44.5959C113.792 45.2959 113.421 45.8839 112.945 46.3599C112.469 46.8499 111.895 47.2209 111.223 47.4729C110.565 47.7389 109.83 47.8719 109.018 47.8719ZM109.123 40.6269C109.459 40.6269 109.788 40.5639 110.11 40.4379C110.446 40.3119 110.74 40.1299 110.992 39.8919C111.244 39.6399 111.447 39.3389 111.601 38.9889C111.755 38.6249 111.832 38.2119 111.832 37.7499C111.832 37.2879 111.755 36.8749 111.601 36.5109C111.447 36.1469 111.244 35.8459 110.992 35.6079C110.74 35.3559 110.446 35.1669 110.11 35.0409C109.788 34.9149 109.459 34.8519 109.123 34.8519C108.787 34.8519 108.458 34.9149 108.136 35.0409C107.814 35.1669 107.527 35.3559 107.275 35.6079C107.023 35.8599 106.82 36.1679 106.666 36.5319C106.512 36.8819 106.435 37.2879 106.435 37.7499C106.435 38.2119 106.512 38.6249 106.666 38.9889C106.82 39.3389 107.023 39.6399 107.275 39.8919C107.527 40.1299 107.814 40.3119 108.136 40.4379C108.458 40.5639 108.787 40.6269 109.123 40.6269Z" fill="white"/>
<path d="M109.018 47.8719C108.29 47.8719 107.639 47.7739 107.065 47.5779C106.505 47.3959 106.015 47.1509 105.595 46.8429C105.175 46.5489 104.825 46.2199 104.545 45.8559C104.265 45.4919 104.062 45.1279 103.936 44.7639L106.561 43.7139C106.757 44.2599 107.079 44.6799 107.527 44.9739C107.975 45.2819 108.472 45.4359 109.018 45.4359C109.886 45.4359 110.572 45.1629 111.076 44.6169C111.58 44.0849 111.832 43.3359 111.832 42.3699V41.6559H111.664C111.342 42.1039 110.915 42.4609 110.383 42.7269C109.865 42.9789 109.249 43.1049 108.535 43.1049C107.919 43.1049 107.317 42.9789 106.729 42.7269C106.155 42.4749 105.644 42.1179 105.196 41.6559C104.748 41.1799 104.384 40.6129 104.104 39.9549C103.824 39.2969 103.684 38.5619 103.684 37.7499C103.684 36.9379 103.824 36.2029 104.104 35.5449C104.384 34.8729 104.748 34.3059 105.196 33.8439C105.644 33.3679 106.155 33.0039 106.729 32.7519C107.317 32.4999 107.919 32.3739 108.535 32.3739C109.249 32.3739 109.865 32.5069 110.383 32.7729C110.915 33.0249 111.342 33.3749 111.664 33.8229H111.832V32.7099H114.457V42.2649C114.457 43.1329 114.324 43.9099 114.058 44.5959C113.792 45.2959 113.421 45.8839 112.945 46.3599C112.469 46.8499 111.895 47.2209 111.223 47.4729C110.565 47.7389 109.83 47.8719 109.018 47.8719ZM109.123 40.6269C109.459 40.6269 109.788 40.5639 110.11 40.4379C110.446 40.3119 110.74 40.1299 110.992 39.8919C111.244 39.6399 111.447 39.3389 111.601 38.9889C111.755 38.6249 111.832 38.2119 111.832 37.7499C111.832 37.2879 111.755 36.8749 111.601 36.5109C111.447 36.1469 111.244 35.8459 110.992 35.6079C110.74 35.3559 110.446 35.1669 110.11 35.0409C109.788 34.9149 109.459 34.8519 109.123 34.8519C108.787 34.8519 108.458 34.9149 108.136 35.0409C107.814 35.1669 107.527 35.3559 107.275 35.6079C107.023 35.8599 106.82 36.1679 106.666 36.5319C106.512 36.8819 106.435 37.2879 106.435 37.7499C106.435 38.2119 106.512 38.6249 106.666 38.9889C106.82 39.3389 107.023 39.6399 107.275 39.8919C107.527 40.1299 107.814 40.3119 108.136 40.4379C108.458 40.5639 108.787 40.6269 109.123 40.6269Z" fill="white" fill-opacity="0.2"/>
<path d="M116.802 42.9999V27.9639H119.553V42.9999H116.802Z" fill="white"/>
<path d="M116.802 42.9999V27.9639H119.553V42.9999H116.802Z" fill="white" fill-opacity="0.2"/>
<path d="M131.55 40.5219C131.074 41.3619 130.43 42.0409 129.618 42.5589C128.82 43.0769 127.84 43.3359 126.678 43.3359C125.894 43.3359 125.166 43.2029 124.494 42.9369C123.836 42.6569 123.262 42.2719 122.772 41.7819C122.282 41.2919 121.897 40.7179 121.617 40.0599C121.351 39.3879 121.218 38.6529 121.218 37.8549C121.218 37.1129 121.351 36.4129 121.617 35.7549C121.883 35.0829 122.254 34.5019 122.73 34.0119C123.206 33.5079 123.766 33.1089 124.41 32.8149C125.068 32.5209 125.789 32.3739 126.573 32.3739C127.399 32.3739 128.134 32.5139 128.778 32.7939C129.422 33.0599 129.961 33.4379 130.395 33.9279C130.829 34.4039 131.158 34.9709 131.382 35.6289C131.606 36.2869 131.718 37.0009 131.718 37.7709C131.718 37.8689 131.718 37.9529 131.718 38.0229C131.704 38.1069 131.697 38.1839 131.697 38.2539C131.683 38.3239 131.676 38.4009 131.676 38.4849H123.927C123.983 38.9049 124.095 39.2689 124.263 39.5769C124.445 39.8709 124.662 40.1229 124.914 40.3329C125.18 40.5289 125.467 40.6759 125.775 40.7739C126.083 40.8579 126.398 40.8999 126.72 40.8999C127.35 40.8999 127.868 40.7599 128.274 40.4799C128.694 40.1859 129.023 39.8219 129.261 39.3879L131.55 40.5219ZM129.051 36.5319C129.037 36.3499 128.974 36.1469 128.862 35.9229C128.764 35.6989 128.61 35.4889 128.4 35.2929C128.204 35.0969 127.952 34.9359 127.644 34.8099C127.35 34.6839 126.993 34.6209 126.573 34.6209C125.985 34.6209 125.467 34.7889 125.019 35.1249C124.571 35.4609 124.256 35.9299 124.074 36.5319H129.051Z" fill="white"/>
<path d="M131.55 40.5219C131.074 41.3619 130.43 42.0409 129.618 42.5589C128.82 43.0769 127.84 43.3359 126.678 43.3359C125.894 43.3359 125.166 43.2029 124.494 42.9369C123.836 42.6569 123.262 42.2719 122.772 41.7819C122.282 41.2919 121.897 40.7179 121.617 40.0599C121.351 39.3879 121.218 38.6529 121.218 37.8549C121.218 37.1129 121.351 36.4129 121.617 35.7549C121.883 35.0829 122.254 34.5019 122.73 34.0119C123.206 33.5079 123.766 33.1089 124.41 32.8149C125.068 32.5209 125.789 32.3739 126.573 32.3739C127.399 32.3739 128.134 32.5139 128.778 32.7939C129.422 33.0599 129.961 33.4379 130.395 33.9279C130.829 34.4039 131.158 34.9709 131.382 35.6289C131.606 36.2869 131.718 37.0009 131.718 37.7709C131.718 37.8689 131.718 37.9529 131.718 38.0229C131.704 38.1069 131.697 38.1839 131.697 38.2539C131.683 38.3239 131.676 38.4009 131.676 38.4849H123.927C123.983 38.9049 124.095 39.2689 124.263 39.5769C124.445 39.8709 124.662 40.1229 124.914 40.3329C125.18 40.5289 125.467 40.6759 125.775 40.7739C126.083 40.8579 126.398 40.8999 126.72 40.8999C127.35 40.8999 127.868 40.7599 128.274 40.4799C128.694 40.1859 129.023 39.8219 129.261 39.3879L131.55 40.5219ZM129.051 36.5319C129.037 36.3499 128.974 36.1469 128.862 35.9229C128.764 35.6989 128.61 35.4889 128.4 35.2929C128.204 35.0969 127.952 34.9359 127.644 34.8099C127.35 34.6839 126.993 34.6209 126.573 34.6209C125.985 34.6209 125.467 34.7889 125.019 35.1249C124.571 35.4609 124.256 35.9299 124.074 36.5319H129.051Z" fill="white" fill-opacity="0.2"/>
<path d="M138.425 42.9999V27.9639H143.717C144.431 27.9639 145.096 28.0829 145.712 28.3209C146.342 28.5449 146.888 28.8669 147.35 29.2869C147.812 29.7069 148.176 30.2109 148.442 30.7989C148.708 31.3729 148.841 32.0099 148.841 32.7099C148.841 33.4239 148.708 34.0749 148.442 34.6629C148.176 35.2369 147.812 35.7339 147.35 36.1539C146.888 36.5739 146.342 36.9029 145.712 37.1409C145.096 37.3649 144.431 37.4769 143.717 37.4769H141.26V42.9999H138.425ZM143.759 34.7889C144.501 34.7889 145.061 34.5789 145.439 34.1589C145.817 33.7389 146.006 33.2559 146.006 32.7099C146.006 32.4439 145.957 32.1849 145.859 31.9329C145.775 31.6809 145.635 31.4639 145.439 31.2819C145.257 31.0859 145.026 30.9319 144.746 30.8199C144.466 30.7079 144.137 30.6519 143.759 30.6519H141.26V34.7889H143.759Z" fill="white"/>
<path d="M138.425 42.9999V27.9639H143.717C144.431 27.9639 145.096 28.0829 145.712 28.3209C146.342 28.5449 146.888 28.8669 147.35 29.2869C147.812 29.7069 148.176 30.2109 148.442 30.7989C148.708 31.3729 148.841 32.0099 148.841 32.7099C148.841 33.4239 148.708 34.0749 148.442 34.6629C148.176 35.2369 147.812 35.7339 147.35 36.1539C146.888 36.5739 146.342 36.9029 145.712 37.1409C145.096 37.3649 144.431 37.4769 143.717 37.4769H141.26V42.9999H138.425ZM143.759 34.7889C144.501 34.7889 145.061 34.5789 145.439 34.1589C145.817 33.7389 146.006 33.2559 146.006 32.7099C146.006 32.4439 145.957 32.1849 145.859 31.9329C145.775 31.6809 145.635 31.4639 145.439 31.2819C145.257 31.0859 145.026 30.9319 144.746 30.8199C144.466 30.7079 144.137 30.6519 143.759 30.6519H141.26V34.7889H143.759Z" fill="white" fill-opacity="0.2"/>
<path d="M150.62 42.9999V27.9639H153.371V42.9999H150.62Z" fill="white"/>
<path d="M150.62 42.9999V27.9639H153.371V42.9999H150.62Z" fill="white" fill-opacity="0.2"/>
<path d="M161.966 41.9079H161.798C161.476 42.2999 161.084 42.6359 160.622 42.9159C160.174 43.1959 159.593 43.3359 158.879 43.3359C158.347 43.3359 157.843 43.2449 157.367 43.0629C156.905 42.8949 156.499 42.6569 156.149 42.3489C155.799 42.0409 155.526 41.6699 155.33 41.2359C155.134 40.8019 155.036 40.3259 155.036 39.8079C155.036 39.2759 155.141 38.7999 155.351 38.3799C155.561 37.9459 155.855 37.5749 156.233 37.2669C156.611 36.9589 157.052 36.7279 157.556 36.5739C158.074 36.4059 158.634 36.3219 159.236 36.3219C159.908 36.3219 160.461 36.3779 160.895 36.4899C161.329 36.5879 161.686 36.6929 161.966 36.8049V36.4899C161.966 35.9439 161.749 35.4959 161.315 35.1459C160.881 34.7819 160.342 34.5999 159.698 34.5999C158.746 34.5999 157.941 34.9989 157.283 35.7969L155.288 34.4319C156.38 33.0599 157.871 32.3739 159.761 32.3739C161.357 32.3739 162.575 32.7519 163.415 33.5079C164.255 34.2499 164.675 35.3559 164.675 36.8259V42.9999H161.966V41.9079ZM161.966 38.8209C161.644 38.6669 161.308 38.5479 160.958 38.4639C160.622 38.3659 160.251 38.3169 159.845 38.3169C159.187 38.3169 158.676 38.4639 158.312 38.7579C157.962 39.0379 157.787 39.3879 157.787 39.8079C157.787 40.2279 157.955 40.5639 158.291 40.8159C158.641 41.0679 159.04 41.1939 159.488 41.1939C159.852 41.1939 160.188 41.1309 160.496 41.0049C160.804 40.8649 161.063 40.6899 161.273 40.4799C161.497 40.2559 161.665 40.0039 161.777 39.7239C161.903 39.4299 161.966 39.1289 161.966 38.8209Z" fill="white"/>
<path d="M161.966 41.9079H161.798C161.476 42.2999 161.084 42.6359 160.622 42.9159C160.174 43.1959 159.593 43.3359 158.879 43.3359C158.347 43.3359 157.843 43.2449 157.367 43.0629C156.905 42.8949 156.499 42.6569 156.149 42.3489C155.799 42.0409 155.526 41.6699 155.33 41.2359C155.134 40.8019 155.036 40.3259 155.036 39.8079C155.036 39.2759 155.141 38.7999 155.351 38.3799C155.561 37.9459 155.855 37.5749 156.233 37.2669C156.611 36.9589 157.052 36.7279 157.556 36.5739C158.074 36.4059 158.634 36.3219 159.236 36.3219C159.908 36.3219 160.461 36.3779 160.895 36.4899C161.329 36.5879 161.686 36.6929 161.966 36.8049V36.4899C161.966 35.9439 161.749 35.4959 161.315 35.1459C160.881 34.7819 160.342 34.5999 159.698 34.5999C158.746 34.5999 157.941 34.9989 157.283 35.7969L155.288 34.4319C156.38 33.0599 157.871 32.3739 159.761 32.3739C161.357 32.3739 162.575 32.7519 163.415 33.5079C164.255 34.2499 164.675 35.3559 164.675 36.8259V42.9999H161.966V41.9079ZM161.966 38.8209C161.644 38.6669 161.308 38.5479 160.958 38.4639C160.622 38.3659 160.251 38.3169 159.845 38.3169C159.187 38.3169 158.676 38.4639 158.312 38.7579C157.962 39.0379 157.787 39.3879 157.787 39.8079C157.787 40.2279 157.955 40.5639 158.291 40.8159C158.641 41.0679 159.04 41.1939 159.488 41.1939C159.852 41.1939 160.188 41.1309 160.496 41.0049C160.804 40.8649 161.063 40.6899 161.273 40.4799C161.497 40.2559 161.665 40.0039 161.777 39.7239C161.903 39.4299 161.966 39.1289 161.966 38.8209Z" fill="white" fill-opacity="0.2"/>
<path d="M169.891 42.4959L165.565 32.7099H168.694L171.298 38.9469H171.445L173.944 32.7099H177.01L170.563 47.5359H167.602L169.891 42.4959Z" fill="white"/>
<path d="M169.891 42.4959L165.565 32.7099H168.694L171.298 38.9469H171.445L173.944 32.7099H177.01L170.563 47.5359H167.602L169.891 42.4959Z" fill="white" fill-opacity="0.2"/>
<path d="M20.5625 15.4155V44.5835C20.5627 44.6467 20.5816 44.7086 20.6168 44.7612C20.6519 44.8138 20.7019 44.8548 20.7603 44.8791C20.8187 44.9035 20.883 44.91 20.9451 44.8979C21.0073 44.8859 21.0644 44.8557 21.1095 44.8113L36.2969 30.0002L21.1095 15.1876C21.0644 15.1432 21.0073 15.1131 20.9451 15.101C20.883 15.0889 20.8187 15.0955 20.7603 15.1198C20.7019 15.1442 20.6519 15.1852 20.6168 15.2378C20.5816 15.2904 20.5627 15.3522 20.5625 15.4155V15.4155ZM42.6648 23.9143L23.6218 13.4227L23.6099 13.416C23.2819 13.2379 22.9702 13.6817 23.2388 13.94L38.1664 28.2138L42.6648 23.9143ZM23.2403 46.0604C22.9702 46.3187 23.2819 46.7625 23.6114 46.5844L23.6233 46.5777L42.6648 36.0862L38.1664 31.7852L23.2403 46.0604ZM50.3524 28.1448L45.0346 25.2161L40.0345 30.0002L45.0346 34.7821L50.3524 31.8557C51.7989 31.0564 51.7989 28.9441 50.3524 28.1448Z" fill="white"/>
<path d="M20.5625 15.4155V44.5835C20.5627 44.6467 20.5816 44.7086 20.6168 44.7612C20.6519 44.8138 20.7019 44.8548 20.7603 44.8791C20.8187 44.9035 20.883 44.91 20.9451 44.8979C21.0073 44.8859 21.0644 44.8557 21.1095 44.8113L36.2969 30.0002L21.1095 15.1876C21.0644 15.1432 21.0073 15.1131 20.9451 15.101C20.883 15.0889 20.8187 15.0955 20.7603 15.1198C20.7019 15.1442 20.6519 15.1852 20.6168 15.2378C20.5816 15.2904 20.5627 15.3522 20.5625 15.4155V15.4155ZM42.6648 23.9143L23.6218 13.4227L23.6099 13.416C23.2819 13.2379 22.9702 13.6817 23.2388 13.94L38.1664 28.2138L42.6648 23.9143ZM23.2403 46.0604C22.9702 46.3187 23.2819 46.7625 23.6114 46.5844L23.6233 46.5777L42.6648 36.0862L38.1664 31.7852L23.2403 46.0604ZM50.3524 28.1448L45.0346 25.2161L40.0345 30.0002L45.0346 34.7821L50.3524 31.8557C51.7989 31.0564 51.7989 28.9441 50.3524 28.1448Z" fill="white" fill-opacity="0.2"/>
</svg>
